<svg xmlns="http://www.w3.org/2000/svg" viewBox="0 0 1440 240"><path fill="#ffffff" fill-opacity="1" d="M0,64L30,69.3C60,75,120,85,180,96C240,107,300,117,360,106.7C420,96,480,64,540,85.3C600,107,660,181,720,202.7C780,224,840,192,900,149.3C960,107,1020,53,1080,53.3C1140,53,1200,107,1260,133.3C1320,160,1380,160,1410,160L1440,160L1440,0L1410,0C1380,0,1320,0,1260,0C1200,0,1140,0,1080,0C1020,0,960,0,900,0C840,0,780,0,720,0C660,0,600,0,540,0C480,0,420,0,360,0C300,0,240,0,180,0C120,0,60,0,30,0L0,0Z"></path></svg>